<svg xmlns="http://www.w3.org/2000/svg" xmlns:xlink="http://www.w3.org/1999/xlink" width="500" zoomAndPan="magnify" viewBox="0 0 375 374.999991" height="500" preserveAspectRatio="xMidYMid meet" version="1.0"><defs><g/><clipPath id="f0085e479c"><path d="M 68.621094 156.800781 L 306.378906 156.800781 L 306.378906 218.199219 L 68.621094 218.199219 Z M 68.621094 156.800781 " clip-rule="nonzero"/></clipPath><clipPath id="6203d76cc3"><path d="M 68.628906 156.800781 L 306.363281 156.800781 L 306.363281 218.195312 L 68.628906 218.195312 Z M 68.628906 156.800781 " clip-rule="nonzero"/></clipPath></defs><g clip-path="url(#f0085e479c)"><path fill="#fafafa" d="M 68.621094 156.800781 L 306.308594 156.800781 L 306.308594 218.199219 L 68.621094 218.199219 Z M 68.621094 156.800781 " fill-opacity="1" fill-rule="nonzero"/></g><g clip-path="url(#6203d76cc3)"><path stroke-linecap="butt" transform="matrix(0.75, 0, 0, 0.75, 68.628677, 156.799442)" fill="none" stroke-linejoin="miter" d="M 0.000305942 0.00178606 L 316.979514 0.00178606 L 316.979514 81.861172 L 0.000305942 81.861172 Z M 0.000305942 0.00178606 " stroke="#09090b" stroke-width="8" stroke-opacity="1" stroke-miterlimit="4"/></g><g fill="#09090b" fill-opacity="1"><g transform="translate(74.929812, 204.047845)"><g><path d="M 32.859375 -24.140625 C 32.117188 -25.421875 31.066406 -26.40625 29.703125 -27.09375 C 28.335938 -27.78125 26.832031 -28.125 25.1875 -28.125 C 22.144531 -28.125 19.484375 -26.953125 17.203125 -24.609375 C 14.921875 -22.265625 13.78125 -19.488281 13.78125 -16.28125 C 13.78125 -13.875 14.550781 -11.921875 16.09375 -10.421875 C 17.632812 -8.929688 19.671875 -8.1875 22.203125 -8.1875 C 23.742188 -8.1875 25.289062 -8.53125 26.84375 -9.21875 C 28.40625 -9.914062 29.78125 -10.859375 30.96875 -12.046875 L 29.140625 -0.71875 C 28.460938 -0.5 27.28125 -0.164062 25.59375 0.28125 C 23.914062 0.738281 22.238281 0.96875 20.5625 0.96875 C 17.644531 0.96875 14.914062 0.332031 12.375 -0.9375 C 9.84375 -2.207031 7.796875 -3.988281 6.234375 -6.28125 C 4.679688 -8.582031 3.890625 -11.257812 3.859375 -14.3125 C 3.859375 -18.414062 4.867188 -22.207031 6.890625 -25.6875 C 8.910156 -29.175781 11.710938 -31.976562 15.296875 -34.09375 C 18.878906 -36.21875 22.5625 -37.28125 26.34375 -37.28125 C 29.039062 -37.28125 31.820312 -36.671875 34.6875 -35.453125 Z M 32.859375 -24.140625 "/></g></g></g><g fill="#09090b" fill-opacity="1"><g transform="translate(101.61803, 204.047845)"><g><path d="M 29.8125 -36.328125 L 37.765625 0 L 27.703125 0 L 26.34375 -6.3125 L 13.34375 -6.3125 L 9.828125 0 L -0.1875 0 L 19.515625 -36.328125 Z M 17.09375 -13.53125 L 24.953125 -13.53125 L 22.9375 -25.09375 L 22.828125 -25.09375 Z M 17.09375 -13.53125 "/></g></g></g><g fill="#09090b" fill-opacity="1"><g transform="translate(134.13538, 204.047845)"><g><path d="M 21.296875 -37.28125 C 25.179688 -37.28125 28.828125 -36.285156 32.234375 -34.296875 L 27.3125 -26.96875 C 25.613281 -28.582031 23.65625 -29.390625 21.4375 -29.390625 C 20.28125 -29.390625 19.226562 -29.054688 18.28125 -28.390625 C 17.332031 -27.734375 16.859375 -26.925781 16.859375 -25.96875 C 16.859375 -25.257812 17.195312 -24.640625 17.875 -24.109375 C 18.550781 -23.578125 19.785156 -23.054688 21.578125 -22.546875 C 24.015625 -21.804688 25.78125 -21.085938 26.875 -20.390625 C 27.96875 -19.703125 28.816406 -18.851562 29.421875 -17.84375 C 30.035156 -16.832031 30.34375 -15.570312 30.34375 -14.0625 C 30.34375 -11.882812 29.78125 -9.570312 28.65625 -7.125 C 27.53125 -4.6875 25.691406 -2.742188 23.140625 -1.296875 C 20.585938 0.140625 17.5625 0.894531 14.0625 0.96875 C 9.570312 0.96875 5.523438 -0.410156 1.921875 -3.171875 L 7.171875 -10.796875 C 9.679688 -8.285156 12.269531 -7.03125 14.9375 -7.03125 C 16.414062 -7.03125 17.660156 -7.414062 18.671875 -8.1875 C 19.679688 -8.957031 20.1875 -9.9375 20.1875 -11.125 C 20.1875 -12.664062 18.644531 -13.851562 15.5625 -14.6875 C 11.832031 -15.71875 9.421875 -16.816406 8.328125 -17.984375 C 7.242188 -19.160156 6.703125 -20.726562 6.703125 -22.6875 C 6.703125 -26.800781 8.101562 -30.257812 10.90625 -33.0625 C 13.71875 -35.875 17.179688 -37.28125 21.296875 -37.28125 Z M 21.296875 -37.28125 "/></g></g></g><g fill="#09090b" fill-opacity="1"><g transform="translate(158.65574, 204.047845)"><g><path d="M 31.078125 -36.328125 L 29.8125 -28.328125 L 22.015625 -28.328125 L 17.53125 0 L 8.09375 0 L 12.578125 -28.328125 L 4.765625 -28.328125 L 6.015625 -36.328125 Z M 31.078125 -36.328125 "/></g></g></g><path stroke-linecap="butt" transform="matrix(0.903363, 0, 0, 0.903363, 172.560536, 156.169591)" fill="none" stroke-linejoin="miter" d="M 49.435498 29.004392 C 49.435498 32.874478 48.315551 36.895908 46.079982 41.060034 C 43.840088 45.219836 40.674834 48.467249 36.584217 50.810922 C 32.497925 53.154594 28.104621 54.32643 23.408628 54.32643 C 17.761329 54.32643 13.17344 52.665969 9.649283 49.340721 C 6.133775 46.015474 4.373858 41.639466 4.373858 36.204049 C 4.373858 31.724262 5.554343 27.594729 7.915312 23.811126 C 10.284928 20.014549 13.506397 17.009287 17.575392 14.78669 C 21.648712 12.564093 25.847431 11.452795 30.180198 11.452795 C 33.635169 11.452795 36.865285 12.200867 39.866223 13.692688 C 42.871486 15.184509 45.215158 17.260086 46.89724 19.915095 C 48.592295 22.561455 49.435498 25.592662 49.435498 29.004392 Z M 25.012876 44.199344 C 27.434383 44.199344 29.665628 43.53343 31.702288 42.205926 C 33.75192 40.869773 35.377788 39.148774 36.584217 37.038604 C 37.790647 34.919786 38.396023 32.826913 38.396023 30.759984 C 38.396023 28.200106 37.427421 26.029398 35.49454 24.252186 C 33.557334 22.470649 31.235283 21.584204 28.528385 21.584204 C 26.435511 21.584204 24.35561 22.154988 22.288682 23.30088 C 20.234725 24.438123 18.56994 25.964537 17.302973 27.884445 C 16.044654 29.804354 15.417657 31.93182 15.417657 34.275492 C 15.417657 37.159679 16.308426 39.533621 18.098611 41.397316 C 19.89312 43.265335 22.197875 44.199344 25.012876 44.199344 Z M 67.298431 12.793271 C 70.926367 12.793271 73.832175 13.649447 76.020179 15.357474 C 78.208183 17.061176 79.302185 19.508628 79.302185 22.704151 C 79.302185 26.120205 78.286017 29.13844 76.258005 31.750207 C 74.234318 34.361975 71.639846 35.95325 68.470268 36.515386 L 78.493574 52.998926 L 65.486626 52.998926 L 58.079411 37.531554 L 57.96266 37.531554 L 55.515208 52.998926 L 45.05949 52.998926 L 51.41162 12.793271 Z M 59.030717 30.811873 L 60.474972 30.811873 C 62.931072 30.811873 64.833684 30.297303 66.178485 29.263839 C 67.531934 28.230375 68.21082 26.721257 68.21082 24.732163 C 68.21082 22.103099 66.040113 20.788567 61.698698 20.788567 L 60.630641 20.788567 Z M 90.121129 12.793271 L 95.941393 23.715995 L 105.160413 12.793271 L 117.700357 12.793271 L 99.56068 33.691736 L 96.529473 52.998926 L 86.073754 52.998926 L 89.104961 33.691736 L 77.598482 12.793271 Z M 128.246882 11.725214 C 132.553704 11.725214 136.588107 12.827864 140.354414 15.033165 L 134.914673 23.132239 C 133.029357 21.350702 130.862974 20.464258 128.415523 20.464258 C 127.13126 20.464258 125.963748 20.827484 124.912987 21.55826 C 123.870874 22.284712 123.35198 23.184128 123.35198 24.252186 C 123.35198 25.034851 123.723854 25.718062 124.471927 26.310466 C 125.219999 26.898546 126.586421 27.477978 128.571191 28.040113 C 131.273765 28.857372 133.223943 29.644361 134.430372 30.40973 C 135.645449 31.175099 136.588107 32.117757 137.258345 33.237704 C 137.932908 34.353327 138.274513 35.754341 138.274513 37.427775 C 138.274513 39.840633 137.65184 42.400511 136.410818 45.111733 C 135.169796 47.809983 133.133136 49.963394 130.305163 51.567642 C 127.472865 53.163242 124.125997 53.997797 120.251587 54.066983 C 115.278851 54.066983 110.799064 52.540569 106.816551 49.483417 L 112.623842 41.047062 C 115.399926 43.823146 118.266817 45.215512 121.215866 45.215512 C 122.850382 45.215512 124.225452 44.787425 125.345399 43.939897 C 126.465345 43.079398 127.023157 41.994044 127.023157 40.683836 C 127.023157 38.971485 125.319454 37.656953 121.907725 36.735916 C 117.782515 35.602997 115.114534 34.383595 113.899457 33.090684 C 112.693028 31.789124 112.087651 30.055153 112.087651 27.884445 C 112.087651 23.335472 113.644334 19.508628 116.749051 16.399586 C 119.866741 13.286221 123.69791 11.725214 128.246882 11.725214 Z M 128.246882 11.725214 " stroke="#fafafa" stroke-width="5.399997" stroke-opacity="1" stroke-miterlimit="4"/><g fill="#09090b" fill-opacity="1"><g transform="translate(172.560536, 204.047845)"><g><path d="M 44.65625 -21.671875 C 44.65625 -18.171875 43.640625 -14.539062 41.609375 -10.78125 C 39.585938 -7.03125 36.726562 -4.09375 33.03125 -1.96875 C 29.34375 0.144531 25.378906 1.203125 21.140625 1.203125 C 16.035156 1.203125 11.894531 -0.296875 8.71875 -3.296875 C 5.539062 -6.296875 3.953125 -10.253906 3.953125 -15.171875 C 3.953125 -19.222656 5.019531 -22.957031 7.15625 -26.375 C 9.289062 -29.789062 12.195312 -32.503906 15.875 -34.515625 C 19.550781 -36.523438 23.347656 -37.53125 27.265625 -37.53125 C 30.378906 -37.53125 33.289062 -36.851562 36 -35.5 C 38.71875 -34.15625 40.835938 -32.285156 42.359375 -29.890625 C 43.890625 -27.492188 44.65625 -24.753906 44.65625 -21.671875 Z M 22.59375 -7.953125 C 24.78125 -7.953125 26.796875 -8.550781 28.640625 -9.75 C 30.484375 -10.957031 31.953125 -12.515625 33.046875 -14.421875 C 34.140625 -16.335938 34.6875 -18.226562 34.6875 -20.09375 C 34.6875 -22.40625 33.8125 -24.363281 32.0625 -25.96875 C 30.3125 -27.570312 28.210938 -28.375 25.765625 -28.375 C 23.878906 -28.375 22.003906 -27.859375 20.140625 -26.828125 C 18.273438 -25.804688 16.769531 -24.425781 15.625 -22.6875 C 14.488281 -20.957031 13.921875 -19.03125 13.921875 -16.90625 C 13.921875 -14.300781 14.726562 -12.15625 16.34375 -10.46875 C 17.96875 -8.789062 20.050781 -7.953125 22.59375 -7.953125 Z M 22.59375 -7.953125 "/></g></g></g><g fill="#09090b" fill-opacity="1"><g transform="translate(210.184391, 204.047845)"><g><path d="M 23.171875 -36.328125 C 26.441406 -36.328125 29.066406 -35.554688 31.046875 -34.015625 C 33.023438 -32.472656 34.015625 -30.253906 34.015625 -27.359375 C 34.015625 -24.273438 33.097656 -21.550781 31.265625 -19.1875 C 29.429688 -16.832031 27.085938 -15.398438 24.234375 -14.890625 L 33.28125 0 L 21.53125 0 L 14.84375 -13.96875 L 14.734375 -13.96875 L 12.53125 0 L 3.078125 0 L 8.8125 -36.328125 Z M 15.703125 -20.046875 L 17 -20.046875 C 19.21875 -20.046875 20.9375 -20.507812 22.15625 -21.4375 C 23.375 -22.363281 23.984375 -23.726562 23.984375 -25.53125 C 23.984375 -27.90625 22.023438 -29.09375 18.109375 -29.09375 L 17.15625 -29.09375 Z M 15.703125 -20.046875 "/></g></g></g><g fill="#09090b" fill-opacity="1"><g transform="translate(237.836102, 204.047845)"><g><path d="M 16.140625 -36.328125 L 21.390625 -26.453125 L 29.71875 -36.328125 L 41.046875 -36.328125 L 24.65625 -17.4375 L 21.921875 0 L 12.46875 0 L 15.21875 -17.4375 L 4.8125 -36.328125 Z M 16.140625 -36.328125 "/></g></g></g><g fill="#09090b" fill-opacity="1"><g transform="translate(267.12575, 204.047845)"><g><path d="M 21.296875 -37.28125 C 25.179688 -37.28125 28.828125 -36.285156 32.234375 -34.296875 L 27.3125 -26.96875 C 25.613281 -28.582031 23.65625 -29.390625 21.4375 -29.390625 C 20.28125 -29.390625 19.226562 -29.054688 18.28125 -28.390625 C 17.332031 -27.734375 16.859375 -26.925781 16.859375 -25.96875 C 16.859375 -25.257812 17.195312 -24.640625 17.875 -24.109375 C 18.550781 -23.578125 19.785156 -23.054688 21.578125 -22.546875 C 24.015625 -21.804688 25.78125 -21.085938 26.875 -20.390625 C 27.96875 -19.703125 28.816406 -18.851562 29.421875 -17.84375 C 30.035156 -16.832031 30.34375 -15.570312 30.34375 -14.0625 C 30.34375 -11.882812 29.78125 -9.570312 28.65625 -7.125 C 27.53125 -4.6875 25.691406 -2.742188 23.140625 -1.296875 C 20.585938 0.140625 17.5625 0.894531 14.0625 0.96875 C 9.570312 0.96875 5.523438 -0.410156 1.921875 -3.171875 L 7.171875 -10.796875 C 9.679688 -8.285156 12.269531 -7.03125 14.9375 -7.03125 C 16.414062 -7.03125 17.660156 -7.414062 18.671875 -8.1875 C 19.679688 -8.957031 20.1875 -9.9375 20.1875 -11.125 C 20.1875 -12.664062 18.644531 -13.851562 15.5625 -14.6875 C 11.832031 -15.71875 9.421875 -16.816406 8.328125 -17.984375 C 7.242188 -19.160156 6.703125 -20.726562 6.703125 -22.6875 C 6.703125 -26.800781 8.101562 -30.257812 10.90625 -33.0625 C 13.71875 -35.875 17.179688 -37.28125 21.296875 -37.28125 Z M 21.296875 -37.28125 "/></g></g></g></svg>